<?xml version="1.0" encoding="utf-8"?>
<!-- Generator: Adobe Illustrator 22.1.0, SVG Export Plug-In . SVG Version: 6.00 Build 0)  -->
<svg version="1.1" id="Layer_1" xmlns="http://www.w3.org/2000/svg" xmlns:xlink="http://www.w3.org/1999/xlink" x="0px" y="0px"
	 viewBox="0 0 177.3 58.9" style="enable-background:new 0 0 177.3 58.9;" xml:space="preserve">
<style type="text/css">
	.st0{fill:#FFFFFF;}
</style>
<title>1569ae41-9893-4417-9852-92f1395e6fc3</title>
<path class="st0" d="M104.6,27.7c-0.4,0-0.6-0.3-0.6-0.6c0,0,0-0.1,0-0.1c0.1-1.1,0.5-2.1,1.1-3.1c0.7-1,1.5-1.8,2.5-2.4
	c1.1-0.6,2.3-1.1,3.5-1.3c1.3-0.3,2.6-0.4,3.9-0.4c1.2,0,2.4,0.1,3.6,0.2c1.2,0.1,2.3,0.5,3.3,1c1,0.5,1.8,1.2,2.5,2
	c0.7,1,1,2.2,1,3.4v12.2c0,1,0.1,2,0.2,3c0.1,0.5,0.1,0.9,0.3,1.4c0.1,0.3-0.1,0.7-0.4,0.8c-0.1,0-0.1,0-0.2,0H120
	c-0.3,0-0.5-0.2-0.6-0.5c-0.1-0.2-0.1-0.4-0.2-0.7l0,0c-0.1-0.3-0.4-0.6-0.8-0.5c-0.1,0-0.2,0.1-0.3,0.1c-0.8,0.7-1.8,1.1-2.8,1.4
	c-1.4,0.4-2.8,0.6-4.3,0.6c-1.1,0-2.1-0.1-3.1-0.4c-0.9-0.3-1.8-0.7-2.5-1.3c-0.7-0.6-1.3-1.3-1.7-2.2c-0.4-1-0.6-2.1-0.6-3.1
	c0-1.1,0.2-2.3,0.7-3.3c0.4-0.8,1.1-1.5,1.8-2.1c0.8-0.5,1.6-0.9,2.5-1.2c1-0.3,1.9-0.5,2.9-0.6c1-0.2,1.9-0.3,2.9-0.4
	c0.8-0.1,1.7-0.2,2.5-0.4c0.6-0.1,1.2-0.4,1.7-0.8c0.4-0.4,0.7-0.9,0.6-1.5c0-0.6-0.1-1.1-0.3-1.7c-0.2-0.4-0.5-0.7-0.9-1
	c-0.4-0.2-0.9-0.4-1.3-0.5c-0.5-0.1-1.1-0.1-1.6-0.1c-1.1-0.1-2.1,0.2-3,0.8c-0.7,0.6-1.1,1.3-1.2,2.2c-0.1,0.3-0.3,0.5-0.6,0.5
	L104.6,27.7z M118.8,33.6c0-0.4-0.3-0.6-0.6-0.6c-0.1,0-0.1,0-0.2,0c-0.1,0-0.1,0-0.2,0.1c-0.4,0.1-0.9,0.3-1.3,0.3
	c-0.5,0.1-1,0.2-1.5,0.2c-0.5,0.1-1,0.1-1.5,0.2c-0.5,0.1-1,0.2-1.4,0.4c-0.4,0.1-0.9,0.3-1.2,0.6c-0.3,0.3-0.6,0.6-0.8,1
	c-0.2,0.5-0.3,1-0.3,1.5c0,0.5,0.1,1,0.3,1.5c0.2,0.4,0.5,0.7,0.9,0.9c0.4,0.2,0.8,0.4,1.3,0.5c0.5,0.1,1,0.1,1.5,0.1
	c1,0.1,2-0.2,3-0.6c0.6-0.4,1.2-0.9,1.5-1.5c0.3-0.6,0.5-1.2,0.6-1.8c0.1-0.5,0.1-1,0.1-1.5L118.8,33.6z"/>
<path class="st0" d="M140.2,24.7c-0.9,0-1.8,0.2-2.6,0.7c-0.7,0.5-1.3,1.1-1.7,1.8c-0.4,0.8-0.8,1.6-0.9,2.5
	c-0.2,0.9-0.3,1.8-0.3,2.7c0,0.9,0.1,1.7,0.3,2.6c0.2,0.8,0.5,1.6,0.9,2.4c0.4,0.7,1,1.3,1.7,1.8c0.8,0.5,1.6,0.7,2.5,0.7
	c1.3,0.1,2.6-0.4,3.6-1.3c0.6-0.6,1-1.3,1.2-2c0.3-0.9,1.1-1.4,2-1.4h1.8c1.2,0,2.1,1,2.1,2.1c0,0.2,0,0.5-0.1,0.7
	c-0.6,1.7-1.6,3.1-2.9,4.3c-2.2,1.7-4.9,2.6-7.7,2.5c-1.7,0-3.3-0.3-4.8-0.9c-1.4-0.6-2.7-1.4-3.8-2.5c-1.1-1.1-1.9-2.4-2.4-3.8
	c-0.6-1.5-0.9-3.2-0.9-4.8c0-1.7,0.3-3.4,0.8-5.1c0.5-1.5,1.3-2.9,2.3-4c1-1.2,2.3-2.1,3.8-2.7c1.6-0.7,3.3-1,5.1-1
	c1.4,0,2.7,0.2,4,0.5c1.2,0.3,2.4,0.9,3.5,1.7c1,0.7,1.9,1.7,2.5,2.8c0.2,0.4,0.4,0.7,0.5,1.1c0.4,1.1-0.2,2.3-1.3,2.7
	c-0.2,0.1-0.5,0.1-0.7,0.1h-2.2c-0.9,0-1.6-0.5-1.9-1.3C143.9,25.6,142.4,24.7,140.2,24.7z"/>
<path class="st0" d="M161.6,13.4v13.1c0,0.7,0.6,1.2,1.2,1.2c0.3,0,0.7-0.1,0.9-0.4l5.6-5.8c0.2-0.2,0.6-0.4,0.9-0.4h4
	c0.7,0,1.2,0.6,1.2,1.2c0,0.3-0.1,0.7-0.4,0.9l-5.9,5.8c-0.4,0.4-0.5,1.1-0.2,1.6l8,12.1c0.4,0.6,0.2,1.3-0.3,1.7
	c-0.2,0.1-0.4,0.2-0.7,0.2h-4.8c-0.4,0-0.8-0.2-1.1-0.6l-5.3-8.6c-0.4-0.6-1.1-0.8-1.7-0.4c-0.1,0-0.1,0.1-0.2,0.2l-1,1
	c-0.2,0.2-0.4,0.6-0.4,0.9v6.3c0,0.7-0.6,1.2-1.2,1.2h-4c-0.7,0-1.2-0.6-1.2-1.2v-30c0-0.7,0.6-1.2,1.2-1.2h4
	C161,12.2,161.6,12.7,161.6,13.4z"/>
<path class="st0" d="M25.5,38.4c1.2,1,2.7,1.5,4.2,1.4c1.2,0,2.4-0.3,3.4-1c0.6-0.4,1.1-0.9,1.5-1.5c0.2-0.4,0.6-0.6,1-0.6h3.2
	c0.7,0,1.2,0.5,1.2,1.2c0,0.2,0,0.3-0.1,0.5c-0.7,1.8-2,3.3-3.5,4.3c-2,1.3-4.4,1.9-6.8,1.8c-1.7,0-3.4-0.3-5-0.9
	c-1.4-0.6-2.7-1.4-3.8-2.5c-1.1-1.1-1.9-2.5-2.4-3.9c-0.6-1.6-0.9-3.3-0.8-5c0-1.7,0.3-3.3,0.9-4.9c1.1-3,3.4-5.3,6.2-6.5
	c1.5-0.7,3.2-1,4.9-1c1.8,0,3.6,0.4,5.2,1.2c1.4,0.7,2.7,1.8,3.7,3.1c1,1.3,1.7,2.8,2.1,4.5c0.3,1.3,0.5,2.7,0.5,4
	c0,0.7-0.5,1.2-1.2,1.2H25.2c-0.7,0-1.2,0.5-1.2,1.2c0,0.1,0,0.1,0,0.2C24.2,36.4,24.7,37.5,25.5,38.4z M32.8,26
	c-0.9-0.9-2.2-1.4-3.5-1.3c-0.9,0-1.8,0.1-2.6,0.5c-0.6,0.3-1.2,0.8-1.6,1.3c-0.4,0.5-0.7,1-0.9,1.6v0c-0.2,0.6,0.2,1.3,0.8,1.5
	c0.1,0,0.2,0,0.3,0h7.5c0.7,0,1.2-0.5,1.2-1.2c0-0.1,0-0.3-0.1-0.4C33.7,27.4,33.3,26.6,32.8,26L32.8,26z"/>
<path class="st0" d="M61.4,41c-0.7,1.2-1.7,2.2-3,2.8c-1.3,0.6-2.7,0.9-4.2,0.8c-1.6,0-3.2-0.3-4.6-1c-1.3-0.7-2.4-1.6-3.3-2.8
	c-0.9-1.2-1.5-2.6-2-4c-0.4-1.5-0.7-3.1-0.7-4.7c0-1.5,0.2-3.1,0.7-4.6c0.4-1.4,1.1-2.7,2-3.9c1.8-2.4,4.7-3.8,7.8-3.7
	c1.4,0,2.7,0.3,4,0.9c1.2,0.6,2.3,1.5,3,2.6h0.1V12.9c0-0.7,0.6-1.3,1.3-1.3c0,0,0,0,0,0h3.8c0.7,0,1.3,0.6,1.3,1.3v29.8
	c0,0.7-0.6,1.3-1.3,1.3h-3.5c-0.7,0-1.3-0.6-1.3-1.3l0,0L61.4,41L61.4,41z M61.1,29.4c-0.2-0.8-0.5-1.6-0.9-2.4
	c-0.4-0.7-1-1.2-1.7-1.7c-0.8-0.5-1.7-0.7-2.6-0.6c-0.9,0-1.9,0.2-2.7,0.6c-0.7,0.4-1.3,1-1.8,1.7c-0.5,0.7-0.8,1.5-1,2.4
	c-0.2,0.9-0.3,1.9-0.3,2.8c0,0.9,0.1,1.8,0.3,2.7c0.2,0.9,0.5,1.7,1,2.4c0.5,0.7,1.1,1.3,1.8,1.7c0.8,0.5,1.7,0.7,2.6,0.7
	c0.9,0,1.8-0.2,2.7-0.6c0.7-0.4,1.3-1,1.7-1.7c0.4-0.8,0.7-1.6,0.9-2.4c0.2-0.9,0.3-1.9,0.3-2.8C61.4,31.3,61.3,30.3,61.1,29.4
	L61.1,29.4z"/>
<path class="st0" d="M16.3,19.9v3.5c0,0.7-0.6,1.3-1.3,1.3c-0.1,0-0.2,0-0.2,0c0,0,0,0,0,0c-0.5-0.1-1-0.1-1.5-0.1
	c-1.2-0.1-2.5,0.2-3.6,0.8c-0.5,0.3-1,0.7-1.4,1.1c-0.2,0.2-0.4,0.5-0.6,0.8c-0.2,0.3-0.3,0.5-0.5,0.8c-0.2,0.4-0.4,0.9-0.5,1.3
	c-0.1,0.5-0.2,1.1-0.2,1.6v12.3c0,0.7-0.6,1.3-1.3,1.3c0,0,0,0,0,0H1.3C0.6,44.6,0,44,0,43.3V20.5c0-0.7,0.6-1.3,1.3-1.3
	c0,0,0,0,0,0h3.7c0.7,0,1.3,0.6,1.3,1.3v2.7h0.1c0-0.1,0.1-0.2,0.1-0.2c0.3-0.6,0.6-1.1,1-1.6c0.1-0.1,0.2-0.3,0.4-0.4
	c0.3-0.3,0.5-0.5,0.8-0.8C9,20.1,9.1,20,9.3,19.9c0.1,0,0.1-0.1,0.2-0.1c0.6-0.4,1.2-0.6,1.8-0.8l0,0c0.9-0.3,1.8-0.4,2.7-0.4
	c0.4,0,0.8,0,1.1,0.1l0.1,0C15.8,18.8,16.3,19.3,16.3,19.9z"/>
<g>
	<g>
		<path class="st0" d="M98.6,27c-0.5-1.5-1.3-2.8-2.4-4c-1-1.1-2.3-2.1-3.7-2.7c-0.3-0.1-0.6-0.3-1-0.4c-0.5-0.2-1.1,0.1-1.3,0.6
			c0,0.1-0.1,0.2-0.1,0.3v4.4c0,0.3,0.2,0.6,0.4,0.8c0.3,0.2,0.6,0.5,0.9,0.8c0.6,0.7,1.1,1.5,1.4,2.3c0.6,1.8,0.6,3.7,0,5.4
			c-0.3,0.8-0.8,1.6-1.4,2.3c-2.7,2.9-7.2,3-10.1,0.3c-0.1-0.1-0.2-0.2-0.3-0.3l0,0c0,0-0.1-0.1-0.1-0.1v5.7c0,0,0.1,0.1,0.1,0.1
			c0.5,0.4,1.1,0.8,1.7,1c1.5,0.7,3.1,1,4.8,1c1.7,0,3.4-0.3,5-1c1.4-0.6,2.7-1.5,3.8-2.7c1.1-1.2,1.9-2.5,2.4-4
			c0.6-1.6,0.8-3.3,0.8-5C99.4,30.3,99.1,28.6,98.6,27z M79.3,15.2c-0.1,0.1-0.2,0.2-0.2,0.3c-0.2,0.2-0.3,0.4-0.5,0.6c0,0,0,0,0,0
			v0c0,0,0,0,0,0c0,0,0,0,0,0s0,0,0,0c0,0,0,0.1,0,0.1c0,0,0,0.1,0,0.1c0,0.1,0,0.1,0,0.2c-0.1,0.1-0.1,0.3-0.2,0.4
			c-0.1,0.2-0.2,0.4-0.4,0.6c0,0.1-0.1,0.2-0.1,0.2l0,0h0.5c0.6,0,1-0.5,1-1L79.3,15.2C79.3,15.2,79.3,15.2,79.3,15.2z M78.3,0.7
			h-3.9c-0.6,0-1,0.5-1,1v12.5c0,0,0.1-0.1,0.1-0.1h0c0.1-0.1,0.2-0.1,0.2-0.2v0c0.1-0.1,0.1-0.1,0.1-0.2c0.1-0.2,0.1-0.4,0.2-0.6v0
			c0-0.1,0-0.1,0-0.2c0-0.1,0-0.2,0-0.2c0-0.2,0-0.3,0-0.5c0-0.1,0-0.2,0-0.2c0-0.2,0-0.3,0.1-0.5v0c0-0.1,0.1-0.2,0.2-0.3
			c0.1-0.1,0.2-0.1,0.4-0.2c0,0,0.1,0,0.1,0h0c0.1,0,0.2,0,0.4,0c0.1,0,0.2,0,0.3,0.1c0,0,0,0,0.1,0c0.1,0,0.2,0.1,0.3,0.1
			c0,0,0,0,0,0c0.1,0,0.1,0.1,0.2,0.1c0.1,0.1,0.1,0.1,0.1,0.2c0.1,0.1,0.1,0.2,0.2,0.3c0,0.1,0,0.1,0,0.2c0,0,0,0,0,0.1
			c0,0,0,0,0,0.1c0,0,0,0.1,0,0.1s0,0.1-0.1,0.1c0,0,0,0,0,0.1c0,0-0.1,0.1-0.1,0.1c0,0,0,0,0,0.1c0,0,0,0,0,0.1
			c0,0.2-0.1,0.3-0.1,0.5c0,0,0,0,0,0.1c0,0,0,0,0,0.1c0,0.1-0.1,0.3-0.2,0.4c-0.1,0.1-0.2,0.2-0.3,0.4c0,0.1-0.1,0.1-0.2,0.2v0
			c-0.1,0.1-0.1,0.2-0.2,0.3c0,0,0,0.1,0,0.1c0,0,0,0,0.1,0c0.1,0,0.3,0.1,0.4,0.2c0.1,0.1,0.2,0.2,0.3,0.2c0.1,0,0.1,0.1,0.2,0.1
			c0.2,0.1,0.3,0.1,0.5,0.1c0.2,0.1,0.3,0.1,0.5,0.2c0,0,0.1,0,0.1,0c0.1,0.1,0.3,0,0.4,0h0c0.1-0.1,0.3-0.2,0.4-0.3
			c0.1,0,0.2-0.1,0.2-0.1c0.1,0,0.2-0.1,0.2-0.1c0.2-0.1,0.3-0.2,0.5-0.3c0.1-0.1,0.2-0.2,0.3-0.4l0-0.1V1.8
			C79.3,1.2,78.9,0.7,78.3,0.7z M78.3,16.5L78.3,16.5C78.3,16.5,78.3,16.5,78.3,16.5L78.3,16.5c-0.1,0-0.1,0-0.2,0c0,0-0.1,0-0.1,0
			v0c0,0,0,0,0,0c0,0,0,0-0.1,0.1l0,0l0,0c0,0,0,0.1,0,0.1c0,0,0,0,0,0.1c0,0-0.1,0.1-0.1,0.1c0,0-0.1,0.1-0.1,0.2
			c0,0.1-0.1,0.2-0.2,0.3c0,0-0.1,0.1-0.1,0.1c0,0,0,0,0,0v0c0,0,0,0,0,0.1c0,0,0,0.1,0,0.1c0,0,0,0.1,0,0.1h0.1
			c0,0,0.1-0.1,0.1-0.2l0.3-0.6v0C78.1,16.9,78.2,16.7,78.3,16.5L78.3,16.5L78.3,16.5z M77.5,17C77.5,16.9,77.5,17,77.5,17
			c-0.1,0-0.1,0-0.1,0l-0.2,0.1c0,0-0.1,0.1-0.1,0.1v0c0,0,0,0.1,0,0.1v0c0.1,0,0.1,0.1,0.2,0c0,0,0,0,0.1,0c0-0.1,0.1-0.2,0.1-0.2
			h0c0,0,0,0,0,0C77.5,17,77.5,17,77.5,17z M77.4,16.7c-0.1,0-0.2,0-0.4,0c0,0,0,0,0,0c0,0-0.1,0-0.1,0c0,0,0,0,0,0v0
			c-0.1,0.1-0.1,0.1-0.2,0.2c0,0,0,0-0.1,0.1c0,0,0,0,0,0.1c0,0,0,0.1-0.1,0.2c0,0,0,0.1,0,0.1c0,0,0,0,0,0c0,0,0,0,0,0c0,0,0,0,0,0
			c0.1,0,0.1,0.1,0.2,0c0,0,0.1,0,0.1-0.1c0.1-0.1,0.1-0.1,0.2-0.2c0.1-0.1,0.1-0.1,0.2-0.2L77.4,16.7
			C77.5,16.8,77.5,16.7,77.4,16.7c0.1,0,0.1,0,0.1,0C77.5,16.7,77.5,16.7,77.4,16.7z"/>
		<path class="st0" d="M87.5,19L87.5,19c-0.2,0-0.2,0-0.3,0c-0.1,0-0.2,0-0.3-0.1c-0.2,0-0.4,0-0.5,0c-0.1,0-0.2,0-0.3,0
			c-0.1,0-0.2,0-0.4,0c-0.6,0.1-1.2,0.2-1.8,0.3c-0.6,0.2-1.2,0.4-1.7,0.8c-0.1,0-0.1,0.1-0.2,0.1c-0.1,0.1-0.2,0.2-0.3,0.2
			c0,0-0.1,0-0.1,0l0,0c0.1,0.1,0.1,0.1,0.2,0.2c0,0,0,0,0.1,0.1c0,0,0.1,0.1,0.1,0.1c0.1,0.1,0.2,0.2,0.4,0.2c0,0,0.1,0.1,0.2,0
			c0,0,0.1,0,0.1,0c0,0,0.1,0,0.1,0c0.1,0,0.2,0,0.2-0.1c0-0.1,0.1-0.1,0.2-0.2c0,0,0.1,0,0.1-0.1c0.1-0.1,0.2-0.3,0.3-0.3
			c0,0,0.1,0,0.1,0h0c0.1,0,0.2,0.1,0.2,0.2c0,0,0,0.1,0,0.1c0,0,0,0,0,0c0,0.1-0.1,0.3-0.2,0.4c-0.1,0.1-0.1,0.2-0.2,0.3
			c0,0.1,0,0.2-0.1,0.3v0.1c0,0,0,0,0,0c0,0.1,0,0.2,0,0.3c0,0.2-0.2,0.4-0.4,0.5c-0.1,0-0.3,0-0.4-0.1c-0.1-0.1-0.2-0.2-0.3-0.4
			c0,0-0.1-0.1-0.1-0.1c-0.1-0.1-0.3-0.3-0.5-0.4c-0.2-0.1-0.4-0.2-0.6-0.4c-0.1-0.1-0.2-0.1-0.3-0.2h0c0,0,0,0-0.1,0.1l0,0
			c-0.1,0.1-0.2,0.2-0.3,0.3c0,0,0,0,0,0.1v0c0.1,0.1,0.1,0.1,0.2,0.2c0.2,0.1,0.3,0.3,0.4,0.5c0.1,0.1,0.1,0.2,0.1,0.3
			c0,0.1,0,0.3,0,0.4v0.8c0,0.2,0,0.4,0,0.6c0,0.1,0,0.1,0,0.2c0,0.2-0.1,0.4-0.1,0.6c0,0.1,0,0.1,0,0.2c0,0.2-0.1,0.4-0.1,0.6
			c0,0.1,0,0.2,0,0.3v0.1c0,0,0,0,0,0c0.4-0.4,0.8-0.8,1.3-1c0.7-0.4,1.4-0.6,2.2-0.7c0.2,0,0.3,0,0.5,0c0.2,0,0.4,0,0.6,0
			c0.2,0,0.5,0,0.7,0c0.2,0,0.5,0.1,0.7,0.1h0c0.7,0.1,1.3-0.3,1.4-1c0-0.1,0-0.1,0-0.2v-3.2C88.4,19.6,88,19.1,87.5,19z M79.4,23.2
			l-0.1,0.2c0,0,0,0,0,0l0,0.1c0,0-0.1-0.1-0.1-0.1h0v0c0-0.1-0.1-0.1-0.2-0.2c0,0,0-0.1-0.1-0.1c0,0-0.1-0.1-0.1-0.1h0v0
			c0,0,0,0,0,0c0,0,0,0,0,0c-0.1-0.1-0.1-0.1-0.2-0.2c-0.1,0-0.1-0.1-0.2-0.1c0,0-0.1,0-0.1,0l0,0c-0.1,0-0.2-0.1-0.3-0.1h0v0
			c-0.1,0-0.1-0.1-0.2-0.1c-0.1,0-0.1-0.1-0.2-0.1c-0.1,0-0.1-0.1-0.2-0.1l0,0c0,0-0.1-0.1-0.2-0.2h0c0,0-0.1,0-0.1-0.1l0,0
			c0,0-0.1,0-0.2,0c-0.1,0-0.1,0-0.2,0c-0.1,0-0.1,0-0.2,0.1c-0.1,0-0.2,0-0.2,0.1c-0.1,0-0.2,0-0.3,0c0,0-0.1,0-0.1,0c0,0,0,0,0,0
			c0,0-0.1,0-0.1,0c0,0,0,0,0,0c0,0,0,0,0,0v0c-0.1,0-0.1,0-0.1-0.1h0v0c0,0,0,0,0,0l0,0c0,0,0,0,0,0c0,0,0,0,0,0
			c0,0.3-0.1,0.6-0.2,0.9c0,0.2-0.1,0.5-0.1,0.7c0,0.2,0,0.5-0.1,0.7c0,0.2,0,0.4,0,0.5c0,0.3,0,0.6,0,0.9c0,0.2,0,0.5,0,0.7
			c0,0.3,0,0.6,0,0.9c0,0.3,0,0.5,0,0.8c0,0.3,0,0.5,0.1,0.8c0,0.1,0,0.2,0,0.4c0,0.3,0,0.5,0.1,0.8c0,0.2,0.1,0.5,0.1,0.8
			c0,0.2,0.1,0.5,0.1,0.7l0,0.1l0,0.3l0,0.1c0,0.1,0,0.1-0.1,0.1h0l0,0c0,0-0.1,0-0.1-0.1l0-0.2c0-0.1,0-0.1,0-0.2
			c0-0.2-0.1-0.4-0.1-0.5c0-0.2,0-0.4-0.1-0.6c-0.1-0.3-0.1-0.7-0.1-1c0-0.2,0-0.5,0-0.7c0-0.4,0-0.7,0-1.1c0-0.2,0-0.5,0-0.7
			c0-0.3,0-0.5,0-0.8c0-0.3,0-0.6,0-0.8c0-0.3,0-0.6,0-0.8c0-0.2,0-0.3,0-0.5c0-0.2,0-0.4,0-0.5c0,0,0-0.1,0-0.1c0,0,0,0,0,0
			c0,0.1,0,0.2-0.1,0.4c0,0.2,0,0.3-0.1,0.5c0,0.2,0,0.4-0.1,0.5c0,0.2,0,0.4-0.1,0.5c0,0.2,0,0.4-0.1,0.7c0,0.2,0,0.4,0,0.6
			c0,0.2,0,0.5,0,0.7c0,0.2,0,0.3,0,0.5c0,0.3,0,0.5,0,0.8l0,0.8c0,0.2,0,0.3,0,0.5c0,0.2,0,0.5,0,0.7c0,0.2,0,0.4,0.1,0.6
			c0,0.2,0,0.4,0,0.6l0,0.3c0,0,0,0.1-0.1,0.1h0c0,0-0.1,0-0.1-0.1l0-0.3l0-0.5v0c0-0.2,0-0.3,0-0.5c0-0.2,0-0.5,0-0.7
			c0-0.2,0-0.5,0-0.7c0-0.2,0-0.4,0-0.6c0-0.3,0-0.6,0-0.8c0-0.3,0-0.6,0-0.9c0-0.3,0-0.6,0-0.8c0-0.4,0-0.7,0.1-1.1
			c0-0.3,0.1-0.6,0.1-0.9l0.1-1.1c0-0.2,0.1-0.4,0.1-0.7c0-0.2,0.1-0.4,0.2-0.6v0c0,0,0,0,0,0c-0.1,0-0.2-0.1-0.3-0.1h0l0,0
			c0,0,0,0,0,0h0v0h0c0,0-0.1,0-0.1,0c0,0,0,0,0,0v0c0,0-0.1,0-0.1-0.1c0,0,0,0,0,0v0c0,0-0.1-0.1-0.1-0.1h0v0c0,0-0.1-0.1-0.1-0.1
			h0v0c0,0,0,0,0-0.1c0,0,0-0.1-0.1-0.1c0,0,0,0,0,0v0c0,0-0.1-0.1-0.1-0.1c-0.1-0.2-0.3-0.4-0.4-0.6c0-0.1-0.1-0.1-0.1-0.2
			c0,0,0,0,0,0c0,0.1-0.1,0.2-0.1,0.2c0,0.1,0,0.2,0,0.3v21c0,0.7,0.5,1.2,1.2,1.2h3.5c0.3,0,0.6-0.1,0.8-0.3
			c0.1-0.1,0.1-0.1,0.2-0.2c0.1-0.1,0.1-0.2,0.1-0.3c0-0.1,0-0.1,0-0.2s0-0.1,0-0.2V30.4c0-0.1,0-0.2,0-0.3c0-0.1,0-0.3,0-0.4
			c0-0.2,0.1-0.5,0.1-0.7c0.1-0.4,0.2-0.8,0.4-1.2v0h0v0c0-0.1,0-0.1,0-0.2v0c0,0,0-0.1,0-0.1c0,0,0-0.1,0-0.1c0,0,0-0.1,0-0.2
			c0,0,0,0,0,0c0-0.2,0-0.3,0-0.5c0,0,0,0,0-0.1c0,0,0-0.1,0-0.2c0,0,0-0.1,0-0.1v-0.1c0-0.1,0-0.3,0-0.4c0-0.2,0-0.3-0.1-0.5
			c0-0.2-0.1-0.4-0.1-0.6c0-0.1,0-0.2,0-0.2c0,0,0-0.1,0-0.1c0,0,0-0.1,0-0.1c0-0.2,0-0.3,0.1-0.5c0,0,0,0,0-0.1c0,0,0,0,0,0v0
			c0,0,0-0.1,0-0.1c0,0,0,0-0.1,0c-0.1,0-0.2,0-0.3,0c-0.1,0-0.1,0-0.2,0"/>
		<path class="st0" d="M87.5,19L87.5,19c-0.2,0-0.2,0-0.3,0c-0.1,0-0.2,0-0.3-0.1c-0.2,0-0.4,0-0.5,0c-0.1,0-0.2,0-0.3,0
			c-0.1,0-0.2,0-0.4,0c-0.6,0.1-1.2,0.2-1.8,0.3c-0.6,0.2-1.2,0.4-1.7,0.8c-0.1,0-0.1,0.1-0.2,0.1c-0.1,0.1-0.2,0.2-0.3,0.2
			c0,0-0.1,0-0.1,0l0,0c0.1,0.1,0.1,0.1,0.2,0.2c0,0,0,0,0.1,0.1c0,0,0.1,0.1,0.1,0.1c0.1,0.1,0.2,0.2,0.4,0.2c0,0,0.1,0.1,0.2,0
			c0,0,0.1,0,0.1,0c0,0,0.1,0,0.1,0c0.1,0,0.2,0,0.2-0.1c0-0.1,0.1-0.1,0.2-0.2c0,0,0.1,0,0.1-0.1c0.1-0.1,0.2-0.3,0.3-0.3
			c0,0,0.1,0,0.1,0h0c0.1,0,0.2,0.1,0.2,0.2c0,0,0,0.1,0,0.1c0,0,0,0,0,0c0,0.1-0.1,0.3-0.2,0.4c-0.1,0.1-0.1,0.2-0.2,0.3
			c0,0.1,0,0.2-0.1,0.3v0.1c0,0,0,0,0,0c0,0.1,0,0.2,0,0.3c0,0.2-0.2,0.4-0.4,0.5c-0.1,0-0.3,0-0.4-0.1c-0.1-0.1-0.2-0.2-0.3-0.4
			c0,0-0.1-0.1-0.1-0.1c-0.1-0.1-0.3-0.3-0.5-0.4c-0.2-0.1-0.4-0.2-0.6-0.4c-0.1-0.1-0.2-0.1-0.3-0.2h0c0,0,0,0-0.1,0.1l0,0
			c-0.1,0.1-0.2,0.2-0.3,0.3c0,0,0,0,0,0.1v0c0.1,0.1,0.1,0.1,0.2,0.2c0.2,0.1,0.3,0.3,0.4,0.5c0.1,0.1,0.1,0.2,0.1,0.3
			c0,0.1,0,0.3,0,0.4v0.8c0,0.2,0,0.4,0,0.6c0,0.1,0,0.1,0,0.2c0,0.2-0.1,0.4-0.1,0.6c0,0.1,0,0.1,0,0.2c0,0.2-0.1,0.4-0.1,0.6
			c0,0.1,0,0.2,0,0.3v0.1c0,0,0,0,0,0c0.4-0.4,0.8-0.8,1.3-1c0.7-0.4,1.4-0.6,2.2-0.7c0.2,0,0.3,0,0.5,0c0.2,0,0.4,0,0.6,0
			c0.2,0,0.5,0,0.7,0c0.2,0,0.5,0.1,0.7,0.1h0c0.7,0.1,1.3-0.3,1.4-1c0-0.1,0-0.1,0-0.2v-3.2C88.4,19.6,88,19.1,87.5,19z"/>
	</g>
</g>
<g>
	<path class="st0" d="M6.6,54.9H8v0.6H6.6L6.6,54.9z"/>
	<path class="st0" d="M18.3,53.7h1.4c0.7,0,1.2,0.4,1.2,1c0,0.4-0.2,0.7-0.5,0.9v0.1l0.6,0.9v0h-0.8l-0.6-0.8H19v0.8h-0.7V53.7z
		 M19.7,54.3H19v0.9h0.6c0.3,0,0.5-0.1,0.5-0.4S20,54.3,19.7,54.3L19.7,54.3z"/>
	<path class="st0" d="M25.8,55.2c0-0.8,0.6-1.5,1.5-1.6c0.8,0,1.5,0.6,1.6,1.5c0,0.8-0.6,1.5-1.5,1.6c0,0,0,0,0,0
		c-0.8,0-1.5-0.6-1.5-1.4C25.8,55.2,25.8,55.2,25.8,55.2z M28.1,55.2c0-0.4-0.4-0.8-0.8-0.8c-0.4,0-0.8,0.4-0.8,0.8
		c0,0.4,0.4,0.8,0.8,0.8C27.7,56,28.1,55.7,28.1,55.2C28.1,55.2,28.1,55.2,28.1,55.2z"/>
	<path class="st0" d="M36.4,54.7c0,0.7-0.5,1-1.2,1h-0.6v0.8h-0.7v-2.9h1.4C35.9,53.7,36.4,54.1,36.4,54.7z M35.1,54.3h-0.6v0.9h0.6
		c0.3,0,0.5-0.1,0.5-0.4S35.5,54.3,35.1,54.3z"/>
	<path class="st0" d="M43.2,55.4H42V56h1.6v0.6h-2.3v-2.9h2.3v0.6H42v0.6h1.3V55.4z"/>
	<path class="st0" d="M54.8,53.7h0.1l1.5,2.9h-0.8l-0.2-0.3h-1.2l-0.2,0.3h-0.8L54.8,53.7z M54.9,54.9L54.9,54.9l-0.4,0.7l0,0.1h0.8
		l0-0.1L54.9,54.9z"/>
	<path class="st0" d="M63.5,56.3c-0.3,0.2-0.6,0.4-1,0.3c-0.8,0-1.5-0.6-1.5-1.4s0.6-1.5,1.4-1.5c0,0,0.1,0,0.1,0
		c0.4,0,0.7,0.1,1,0.3l-0.4,0.5c-0.2-0.1-0.4-0.2-0.6-0.2c-0.5,0-0.8,0.4-0.8,0.8c0,0.5,0.4,0.8,0.8,0.8c0,0,0,0,0,0
		c0.2,0,0.4-0.1,0.6-0.2L63.5,56.3z"/>
	<path class="st0" d="M70.7,56.3c-0.3,0.2-0.6,0.4-1,0.3c-0.8,0-1.5-0.6-1.5-1.4c0-0.8,0.6-1.5,1.4-1.5c0,0,0.1,0,0.1,0
		c0.4,0,0.7,0.1,1,0.3l-0.4,0.5c-0.2-0.1-0.4-0.2-0.6-0.2c-0.5,0-0.8,0.4-0.8,0.8c0,0.5,0.4,0.8,0.8,0.8c0.2,0,0.4-0.1,0.6-0.2
		L70.7,56.3z"/>
	<path class="st0" d="M77.6,55.4h-1.3V56h1.6v0.6h-2.3v-2.9h2.3v0.6h-1.6v0.6h1.3V55.4z"/>
	<path class="st0" d="M83.1,55.7c0.2,0.2,0.5,0.3,0.8,0.3c0.3,0,0.4-0.1,0.4-0.2c0-0.1-0.1-0.2-0.5-0.3c-0.6-0.2-1-0.4-1-0.9
		c0-0.5,0.4-0.9,1.1-0.9c0.4,0,0.8,0.1,1.1,0.3l-0.4,0.6c-0.2-0.2-0.5-0.2-0.7-0.2c-0.3,0-0.4,0.1-0.4,0.2c0,0.1,0.1,0.2,0.5,0.3
		c0.7,0.2,1,0.4,1,0.9c0,0.5-0.4,0.9-1.1,0.9c-0.4,0-0.9-0.1-1.2-0.4L83.1,55.7z"/>
	<path class="st0" d="M90.2,55.7c0.2,0.2,0.5,0.3,0.8,0.3c0.3,0,0.4-0.1,0.4-0.2c0-0.1-0.1-0.2-0.5-0.3c-0.6-0.2-1-0.4-1-0.9
		c0-0.5,0.4-0.9,1.1-0.9c0.4,0,0.8,0.1,1.1,0.3l-0.4,0.6c-0.2-0.2-0.5-0.2-0.7-0.2c-0.3,0-0.4,0.1-0.4,0.2c0,0.1,0.1,0.2,0.5,0.3
		c0.7,0.2,1,0.4,1,0.9c0,0.5-0.4,0.9-1.1,0.9c-0.4,0-0.9-0.1-1.2-0.4L90.2,55.7z"/>
	<path class="st0" d="M102.7,55.7c0.2,0.2,0.5,0.3,0.8,0.3c0.3,0,0.4-0.1,0.4-0.2c0-0.1-0.1-0.2-0.5-0.3c-0.6-0.2-1-0.4-1-0.9
		c0-0.5,0.4-0.9,1.1-0.9c0.4,0,0.8,0.1,1.1,0.3l-0.4,0.6c-0.2-0.2-0.5-0.2-0.7-0.2c-0.3,0-0.4,0.1-0.4,0.2c0,0.1,0.1,0.2,0.5,0.3
		c0.7,0.2,1,0.4,1,0.9c0,0.5-0.4,0.9-1.1,0.9c-0.4,0-0.9-0.1-1.2-0.4L102.7,55.7z"/>
	<path class="st0" d="M111.6,55.4h-1.3V56h1.6v0.6h-2.3v-2.9h2.3v0.6h-1.6v0.6h1.3V55.4z"/>
	<path class="st0" d="M116.9,53.7h1.4c0.7,0,1.2,0.4,1.2,1c0,0.4-0.2,0.7-0.5,0.9v0.1l0.6,0.9v0h-0.8l-0.6-0.8h-0.7v0.8h-0.7V53.7z
		 M118.3,54.3h-0.6v0.9h0.6c0.3,0,0.5-0.1,0.5-0.4S118.6,54.3,118.3,54.3L118.3,54.3z"/>
	<path class="st0" d="M125.6,55.4L125.6,55.4l0.2-0.5l0.5-1.2h0.8l-1.5,2.9h-0.1l-1.5-2.9h0.8l0.5,1.2L125.6,55.4z"/>
	<path class="st0" d="M132.6,56.6H132v-2.9h0.7V56.6z"/>
	<path class="st0" d="M140.2,56.3c-0.3,0.2-0.6,0.4-1,0.3c-0.8,0-1.5-0.6-1.5-1.4c0-0.8,0.6-1.5,1.4-1.5c0,0,0.1,0,0.1,0
		c0.4,0,0.7,0.1,1,0.3l-0.4,0.5c-0.2-0.1-0.4-0.2-0.6-0.2c-0.5,0-0.8,0.4-0.8,0.8c0,0.5,0.4,0.8,0.8,0.8c0.2,0,0.4-0.1,0.6-0.2
		L140.2,56.3z"/>
	<path class="st0" d="M147.1,55.4h-1.3V56h1.6v0.6h-2.3v-2.9h2.3v0.6h-1.6v0.6h1.3L147.1,55.4z"/>
	<path class="st0" d="M152.6,55.7c0.2,0.2,0.5,0.3,0.8,0.3c0.3,0,0.4-0.1,0.4-0.2c0-0.1-0.1-0.2-0.5-0.3c-0.6-0.2-1-0.4-1-0.9
		c0-0.5,0.4-0.9,1.1-0.9c0.4,0,0.8,0.1,1.1,0.3l-0.4,0.6c-0.2-0.2-0.5-0.2-0.7-0.2c-0.3,0-0.4,0.1-0.4,0.2c0,0.1,0.1,0.2,0.5,0.3
		c0.7,0.2,1,0.4,1,0.9c0,0.5-0.4,0.9-1.1,0.9c-0.4,0-0.9-0.1-1.2-0.4L152.6,55.7z"/>
	<path class="st0" d="M164.7,54.9h1.4v0.6h-1.4V54.9z"/>
</g>
</svg>
